<svg xmlns="http://www.w3.org/2000/svg" xmlns:xlink="http://www.w3.org/1999/xlink" width="667" zoomAndPan="magnify" viewBox="0 0 500.25 500.249987" height="667" preserveAspectRatio="xMidYMid meet" version="1.0"><defs><clipPath id="8daa0f950d"><path d="M 0 0 L 499.5 0 L 499.5 499.5 L 0 499.5 Z M 0 0 " clip-rule="nonzero"/></clipPath><clipPath id="fbee112807"><path d="M 0 0 L 499.5 0 L 499.5 499.5 L 0 499.5 Z M 0 0 " clip-rule="nonzero"/></clipPath><clipPath id="b1a2ba7459"><path d="M 89.109375 313.695312 L 122.796875 313.695312 L 122.796875 382.296875 L 89.109375 382.296875 Z M 89.109375 313.695312 " clip-rule="nonzero"/></clipPath><clipPath id="b92aaefbea"><path d="M 103.457031 342.78125 C 105.105469 342.78125 106.316406 342.484375 107.074219 341.863281 C 107.855469 341.253906 108.355469 340.386719 108.59375 339.246094 C 108.832031 338.109375 108.941406 336.480469 108.941406 334.351562 C 108.941406 331.472656 108.625 329.40625 107.984375 328.128906 C 107.34375 326.847656 106.085938 326.21875 104.1875 326.21875 L 102.667969 326.21875 L 102.667969 342.78125 Z M 89.203125 313.792969 L 107.285156 313.792969 C 112.75 313.792969 116.65625 315.558594 118.984375 319.097656 C 121.320312 322.621094 122.5 327.789062 122.5 334.582031 C 122.5 341.375 121.460938 346.507812 119.382812 349.957031 C 117.316406 353.402344 113.597656 355.121094 108.242188 355.121094 L 102.667969 355.121094 L 102.667969 382.191406 L 89.203125 382.191406 Z M 89.203125 313.792969 " clip-rule="nonzero"/></clipPath><clipPath id="14db3f0d2e"><path d="M 0.144531 0.695312 L 33.695312 0.695312 L 33.695312 69.226562 L 0.144531 69.226562 Z M 0.144531 0.695312 " clip-rule="nonzero"/></clipPath><clipPath id="3bf8d61dbb"><path d="M 14.457031 29.78125 C 16.105469 29.78125 17.316406 29.484375 18.074219 28.863281 C 18.855469 28.253906 19.355469 27.386719 19.59375 26.246094 C 19.832031 25.109375 19.941406 23.480469 19.941406 21.351562 C 19.941406 18.472656 19.625 16.40625 18.984375 15.128906 C 18.34375 13.847656 17.085938 13.21875 15.1875 13.21875 L 13.667969 13.21875 L 13.667969 29.78125 Z M 0.203125 0.792969 L 18.285156 0.792969 C 23.75 0.792969 27.65625 2.558594 29.984375 6.097656 C 32.320312 9.621094 33.5 14.789062 33.5 21.582031 C 33.5 28.375 32.460938 33.507812 30.382812 36.957031 C 28.316406 40.402344 24.597656 42.121094 19.242188 42.121094 L 13.667969 42.121094 L 13.667969 69.191406 L 0.203125 69.191406 Z M 0.203125 0.792969 " clip-rule="nonzero"/></clipPath><clipPath id="490b401d90"><rect x="0" width="34" y="0" height="70"/></clipPath><clipPath id="e46810907d"><path d="M 132.359375 313.792969 L 159.773438 313.792969 L 159.773438 327.027344 L 132.359375 327.027344 Z M 132.359375 327.027344 L 146.304688 327.027344 L 146.304688 340.324219 L 132.359375 340.324219 Z M 132.359375 340.324219 L 159.210938 340.324219 L 159.210938 353.210938 L 132.359375 353.210938 Z M 132.359375 353.210938 L 146.304688 353.210938 L 146.304688 368.90625 L 132.359375 368.90625 Z M 132.359375 368.90625 L 160.640625 368.90625 L 160.640625 382.203125 L 132.359375 382.203125 Z M 132.359375 368.90625 " clip-rule="nonzero"/></clipPath><clipPath id="5f9a8290ad"><path d="M 0.359375 0.792969 L 27.773438 0.792969 L 27.773438 14.027344 L 0.359375 14.027344 Z M 0.359375 14.027344 L 14.304688 14.027344 L 14.304688 27.324219 L 0.359375 27.324219 Z M 0.359375 27.324219 L 27.210938 27.324219 L 27.210938 40.210938 L 0.359375 40.210938 Z M 0.359375 40.210938 L 14.304688 40.210938 L 14.304688 55.90625 L 0.359375 55.90625 Z M 0.359375 55.90625 L 28.640625 55.90625 L 28.640625 69.203125 L 0.359375 69.203125 Z M 0.359375 55.90625 " clip-rule="nonzero"/></clipPath><clipPath id="1c6e81c659"><rect x="0" width="29" y="0" height="70"/></clipPath><clipPath id="aa8c5633ec"><path d="M 170.738281 313.792969 L 184.433594 313.792969 L 184.433594 370.5625 L 170.738281 370.5625 Z M 170.738281 370.5625 L 198.539062 370.5625 L 198.539062 382.203125 L 170.738281 382.203125 Z M 170.738281 370.5625 " clip-rule="nonzero"/></clipPath><clipPath id="4aeb27d485"><path d="M 0.738281 0.792969 L 14.433594 0.792969 L 14.433594 57.5625 L 0.738281 57.5625 Z M 0.738281 57.5625 L 28.539062 57.5625 L 28.539062 69.203125 L 0.738281 69.203125 Z M 0.738281 57.5625 " clip-rule="nonzero"/></clipPath><clipPath id="1c6edd0478"><rect x="0" width="29" y="0" height="70"/></clipPath><clipPath id="83d07356a8"><path d="M 206 313.695312 L 242.613281 313.695312 L 242.613281 382.296875 L 206 382.296875 Z M 206 313.695312 " clip-rule="nonzero"/></clipPath><clipPath id="4bbaecee24"><path d="M 221.21875 360.226562 L 227.441406 360.226562 L 224.40625 325.429688 L 223.785156 325.429688 Z M 206.082031 382.203125 L 212.707031 313.792969 L 235.871094 313.792969 L 242.40625 382.203125 L 229.417969 382.203125 L 228.460938 371.132812 L 220.199219 371.132812 L 219.390625 382.203125 Z M 206.082031 382.203125 " clip-rule="nonzero"/></clipPath><clipPath id="419db25403"><path d="M 0 0.695312 L 36.515625 0.695312 L 36.515625 69.226562 L 0 69.226562 Z M 0 0.695312 " clip-rule="nonzero"/></clipPath><clipPath id="d837a66bc9"><path d="M 15.21875 47.226562 L 21.441406 47.226562 L 18.40625 12.429688 L 17.785156 12.429688 Z M 0.0820312 69.203125 L 6.707031 0.792969 L 29.871094 0.792969 L 36.40625 69.203125 L 23.417969 69.203125 L 22.460938 58.132812 L 14.199219 58.132812 L 13.390625 69.203125 Z M 0.0820312 69.203125 " clip-rule="nonzero"/></clipPath><clipPath id="0e741f1a70"><rect x="0" width="37" y="0" height="70"/></clipPath><clipPath id="bfb081a37e"><path d="M 262 313.488281 L 297.789062 313.488281 L 297.789062 382.453125 L 262 382.453125 Z M 262 313.488281 " clip-rule="nonzero"/></clipPath><clipPath id="64c0bd675c"><path d="M 270.546875 382.199219 L 262.09375 313.730469 L 275.160156 313.730469 L 280.175781 360.300781 L 284.632812 313.730469 L 297.679688 313.730469 L 289.257812 382.199219 Z M 270.546875 382.199219 " clip-rule="nonzero"/></clipPath><clipPath id="5602f26bba"><path d="M 0 0.691406 L 35.789062 0.691406 L 35.789062 69.226562 L 0 69.226562 Z M 0 0.691406 " clip-rule="nonzero"/></clipPath><clipPath id="5e2881a7e0"><path d="M 8.546875 69.199219 L 0.09375 0.730469 L 13.160156 0.730469 L 18.175781 47.300781 L 22.632812 0.730469 L 35.679688 0.730469 L 27.257812 69.199219 Z M 8.546875 69.199219 " clip-rule="nonzero"/></clipPath><clipPath id="53fec4511a"><rect x="0" width="36" y="0" height="70"/></clipPath><clipPath id="22ce5fe1ac"><path d="M 306.53125 313.789062 L 319.746094 313.789062 L 319.746094 382.199219 L 306.53125 382.199219 Z M 306.53125 313.789062 " clip-rule="nonzero"/></clipPath><clipPath id="8c8f39768c"><path d="M 0.53125 0.789062 L 13.746094 0.789062 L 13.746094 69.199219 L 0.53125 69.199219 Z M 0.53125 0.789062 " clip-rule="nonzero"/></clipPath><clipPath id="71cdd72b7f"><rect x="0" width="14" y="0" height="70"/></clipPath><clipPath id="88f8dcff01"><path d="M 88.320312 406.242188 L 411.175781 406.242188 L 411.175781 410.835938 L 88.320312 410.835938 Z M 88.320312 406.242188 " clip-rule="nonzero"/></clipPath><clipPath id="4c40050a5a"><path d="M 0.320312 0.242188 L 323.175781 0.242188 L 323.175781 4.835938 L 0.320312 4.835938 Z M 0.320312 0.242188 " clip-rule="nonzero"/></clipPath><clipPath id="eb784ab5d1"><rect x="0" width="324" y="0" height="5"/></clipPath><clipPath id="4dfd368804"><path d="M 88.566406 88.660156 L 410.875 88.660156 L 410.875 297.023438 L 88.566406 297.023438 Z M 88.566406 88.660156 " clip-rule="nonzero"/></clipPath><clipPath id="3edd134882"><path d="M 385.097656 254.03125 C 381.269531 259.417969 374.945312 262.105469 366.136719 262.105469 C 356.503906 262.105469 349.550781 259.714844 345.277344 254.941406 C 341 250.164062 338.863281 242.472656 338.863281 231.863281 L 338.863281 221.503906 L 359.722656 221.503906 L 359.722656 234.722656 C 359.722656 239.984375 361.410156 242.613281 364.777344 242.613281 C 366.664062 242.613281 367.972656 242.0625 368.710938 240.945312 C 369.460938 239.835938 369.832031 237.96875 369.832031 235.332031 C 369.832031 231.875 369.421875 229.015625 368.601562 226.757812 C 367.785156 224.5 366.734375 222.613281 365.457031 221.09375 C 364.175781 219.566406 361.898438 217.199219 358.613281 213.980469 L 349.472656 204.839844 C 342.398438 197.929688 338.863281 190.285156 338.863281 181.882812 C 338.863281 172.84375 340.929688 165.949219 345.085938 161.214844 C 349.253906 156.488281 355.316406 154.121094 363.296875 154.121094 C 372.839844 154.121094 379.710938 156.660156 383.898438 161.714844 C 388.101562 166.769531 390.199219 174.683594 390.199219 185.460938 L 368.613281 185.460938 L 368.492188 178.179688 C 368.492188 176.800781 368.09375 175.691406 367.304688 174.871094 C 366.523438 174.042969 365.4375 173.621094 364.039062 173.621094 C 362.398438 173.621094 361.160156 174.074219 360.332031 174.972656 C 359.511719 175.878906 359.101562 177.109375 359.101562 178.679688 C 359.101562 182.132812 361.082031 185.710938 365.035156 189.417969 L 377.375 201.265625 C 380.261719 204.070312 382.648438 206.730469 384.535156 209.238281 C 386.425781 211.746094 387.945312 214.710938 389.09375 218.128906 C 390.261719 221.542969 390.839844 225.589844 390.839844 230.285156 C 390.839844 240.734375 388.921875 248.65625 385.097656 254.050781 M 317.40625 165.011719 L 322.480469 146.628906 L 312.660156 146.628906 L 312.660156 123.652344 L 341.648438 123.652344 L 341.648438 145.992188 L 333.71875 165.011719 Z M 302.46875 260.265625 L 277.59375 260.265625 L 277.59375 162.203125 L 261.898438 260.277344 L 237.503906 260.277344 L 220.863281 162.203125 L 220.863281 260.277344 L 196.296875 260.277344 L 196.296875 124.152344 L 237.816406 124.152344 L 249.222656 207.1875 L 260.632812 124.152344 L 302.46875 124.152344 Z M 155.597656 260.265625 L 140.691406 194.351562 L 140.691406 260.265625 L 113.589844 260.265625 L 113.589844 124.152344 L 140.542969 124.152344 L 140.542969 178.65625 L 153.21875 124.152344 L 180.621094 124.152344 L 165.417969 186.429688 L 183.800781 260.277344 Z M 88.566406 297.019531 L 410.871094 297.019531 L 410.871094 88.660156 L 88.566406 88.660156 Z M 88.566406 297.019531 " clip-rule="nonzero"/></clipPath><clipPath id="8447ccc814"><path d="M 0.566406 0.660156 L 322.875 0.660156 L 322.875 209.023438 L 0.566406 209.023438 Z M 0.566406 0.660156 " clip-rule="nonzero"/></clipPath><clipPath id="448e422dfc"><path d="M 297.097656 166.03125 C 293.269531 171.417969 286.945312 174.105469 278.136719 174.105469 C 268.503906 174.105469 261.550781 171.714844 257.277344 166.941406 C 253 162.164062 250.863281 154.472656 250.863281 143.863281 L 250.863281 133.503906 L 271.722656 133.503906 L 271.722656 146.722656 C 271.722656 151.984375 273.410156 154.613281 276.777344 154.613281 C 278.664062 154.613281 279.972656 154.0625 280.710938 152.945312 C 281.460938 151.835938 281.832031 149.96875 281.832031 147.332031 C 281.832031 143.875 281.421875 141.015625 280.601562 138.757812 C 279.785156 136.5 278.734375 134.613281 277.457031 133.09375 C 276.175781 131.566406 273.898438 129.199219 270.613281 125.980469 L 261.472656 116.839844 C 254.398438 109.929688 250.863281 102.285156 250.863281 93.882812 C 250.863281 84.84375 252.929688 77.949219 257.085938 73.214844 C 261.253906 68.488281 267.316406 66.121094 275.296875 66.121094 C 284.839844 66.121094 291.710938 68.660156 295.898438 73.714844 C 300.101562 78.769531 302.199219 86.683594 302.199219 97.460938 L 280.613281 97.460938 L 280.492188 90.179688 C 280.492188 88.800781 280.09375 87.691406 279.304688 86.871094 C 278.523438 86.042969 277.4375 85.621094 276.039062 85.621094 C 274.398438 85.621094 273.160156 86.074219 272.332031 86.972656 C 271.511719 87.878906 271.101562 89.109375 271.101562 90.679688 C 271.101562 94.132812 273.082031 97.710938 277.035156 101.417969 L 289.375 113.265625 C 292.261719 116.070312 294.648438 118.730469 296.535156 121.238281 C 298.425781 123.746094 299.945312 126.710938 301.09375 130.128906 C 302.261719 133.542969 302.839844 137.589844 302.839844 142.285156 C 302.839844 152.734375 300.921875 160.65625 297.097656 166.050781 M 229.40625 77.011719 L 234.480469 58.628906 L 224.660156 58.628906 L 224.660156 35.652344 L 253.648438 35.652344 L 253.648438 57.992188 L 245.71875 77.011719 Z M 214.46875 172.265625 L 189.59375 172.265625 L 189.59375 74.203125 L 173.898438 172.277344 L 149.503906 172.277344 L 132.863281 74.203125 L 132.863281 172.277344 L 108.296875 172.277344 L 108.296875 36.152344 L 149.816406 36.152344 L 161.222656 119.1875 L 172.632812 36.152344 L 214.46875 36.152344 Z M 67.597656 172.265625 L 52.691406 106.351562 L 52.691406 172.265625 L 25.589844 172.265625 L 25.589844 36.152344 L 52.542969 36.152344 L 52.542969 90.65625 L 65.21875 36.152344 L 92.621094 36.152344 L 77.417969 98.429688 L 95.800781 172.277344 Z M 0.566406 209.019531 L 322.871094 209.019531 L 322.871094 0.660156 L 0.566406 0.660156 Z M 0.566406 209.019531 " clip-rule="nonzero"/></clipPath><clipPath id="4345fbe76a"><rect x="0" width="323" y="0" height="210"/></clipPath><clipPath id="306a0faa8f"><path d="M 330.710938 313.695312 L 364.703125 313.695312 L 364.703125 382.296875 L 330.710938 382.296875 Z M 330.710938 313.695312 " clip-rule="nonzero"/></clipPath><clipPath id="a0269e1161"><path d="M 346.976562 370.085938 C 349.476562 370.085938 350.722656 368.867188 350.722656 366.417969 L 350.722656 331.175781 C 350.722656 329.636719 350.605469 328.488281 350.34375 327.71875 C 350.105469 326.9375 349.664062 326.417969 349.035156 326.160156 C 348.40625 325.878906 347.4375 325.738281 346.097656 325.738281 L 344.582031 325.738281 L 344.582031 370.09375 Z M 330.804688 313.792969 L 349.683594 313.792969 C 354.570312 313.792969 358.226562 315.152344 360.675781 317.867188 C 363.113281 320.574219 364.359375 324.582031 364.421875 329.875 L 364.589844 361.882812 C 364.628906 368.625 363.453125 373.703125 361.074219 377.097656 C 358.695312 380.496094 354.730469 382.191406 349.207031 382.191406 L 330.804688 382.191406 Z M 330.804688 313.792969 " clip-rule="nonzero"/></clipPath><clipPath id="c313ddcf19"><path d="M 0.710938 0.695312 L 34.703125 0.695312 L 34.703125 69.226562 L 0.710938 69.226562 Z M 0.710938 0.695312 " clip-rule="nonzero"/></clipPath><clipPath id="1a17a7f833"><path d="M 16.976562 57.085938 C 19.476562 57.085938 20.722656 55.867188 20.722656 53.417969 L 20.722656 18.175781 C 20.722656 16.636719 20.605469 15.488281 20.34375 14.71875 C 20.105469 13.9375 19.664062 13.417969 19.035156 13.160156 C 18.40625 12.878906 17.4375 12.738281 16.097656 12.738281 L 14.582031 12.738281 L 14.582031 57.09375 Z M 0.804688 0.792969 L 19.683594 0.792969 C 24.570312 0.792969 28.226562 2.152344 30.675781 4.867188 C 33.113281 7.574219 34.359375 11.582031 34.421875 16.875 L 34.589844 48.882812 C 34.628906 55.625 33.453125 60.703125 31.074219 64.097656 C 28.695312 67.496094 24.730469 69.191406 19.207031 69.191406 L 0.804688 69.191406 Z M 0.804688 0.792969 " clip-rule="nonzero"/></clipPath><clipPath id="b0993301a1"><rect x="0" width="35" y="0" height="70"/></clipPath><clipPath id="d1e2d9eecf"><path d="M 373.585938 313.695312 L 410.335938 313.695312 L 410.335938 382.296875 L 373.585938 382.296875 Z M 373.585938 313.695312 " clip-rule="nonzero"/></clipPath><clipPath id="f833044ee1"><path d="M 388.9375 360.226562 L 395.160156 360.226562 L 392.113281 325.429688 L 391.492188 325.429688 Z M 373.800781 382.203125 L 380.414062 313.792969 L 403.582031 313.792969 L 410.113281 382.203125 L 397.128906 382.203125 L 396.179688 371.132812 L 387.90625 371.132812 L 387.097656 382.203125 Z M 373.800781 382.203125 " clip-rule="nonzero"/></clipPath><clipPath id="7ca27d34d1"><path d="M 0.601562 0.695312 L 37.265625 0.695312 L 37.265625 69.226562 L 0.601562 69.226562 Z M 0.601562 0.695312 " clip-rule="nonzero"/></clipPath><clipPath id="b7622fa541"><path d="M 15.9375 47.226562 L 22.160156 47.226562 L 19.113281 12.429688 L 18.492188 12.429688 Z M 0.800781 69.203125 L 7.414062 0.792969 L 30.582031 0.792969 L 37.113281 69.203125 L 24.128906 69.203125 L 23.179688 58.132812 L 14.90625 58.132812 L 14.097656 69.203125 Z M 0.800781 69.203125 " clip-rule="nonzero"/></clipPath><clipPath id="1d333f924e"><rect x="0" width="38" y="0" height="70"/></clipPath><clipPath id="f660c33419"><rect x="0" width="500" y="0" height="500"/></clipPath></defs><g clip-path="url(#8daa0f950d)"><path fill="#ffffff" d="M 0 0 L 499.5 0 L 499.5 499.5 L 0 499.5 Z M 0 0 " fill-opacity="1" fill-rule="nonzero"/><g transform="matrix(1, 0, 0, 1, 0, 0)"><g clip-path="url(#f660c33419)"><g clip-path="url(#fbee112807)"><path fill="#3d8bff" d="M 0 0 L 499.746094 0 L 499.746094 499.746094 L 0 499.746094 Z M 0 0 " fill-opacity="1" fill-rule="nonzero"/></g><g clip-path="url(#b1a2ba7459)"><g clip-path="url(#b92aaefbea)"><g transform="matrix(1, 0, 0, 1, 89, 313)"><g clip-path="url(#490b401d90)"><g clip-path="url(#14db3f0d2e)"><g clip-path="url(#3bf8d61dbb)"><rect x="-271.091" width="864.432" fill="#ffffff" y="-495.090995" height="864.431978" fill-opacity="1"/></g></g></g></g></g></g><g clip-path="url(#e46810907d)"><g transform="matrix(1, 0, 0, 1, 132, 313)"><g clip-path="url(#1c6e81c659)"><g clip-path="url(#5f9a8290ad)"><rect x="-314.091" width="864.432" fill="#ffffff" y="-495.090995" height="864.431978" fill-opacity="1"/></g></g></g></g><g clip-path="url(#aa8c5633ec)"><g transform="matrix(1, 0, 0, 1, 170, 313)"><g clip-path="url(#1c6edd0478)"><g clip-path="url(#4aeb27d485)"><rect x="-352.091" width="864.432" fill="#ffffff" y="-495.090995" height="864.431978" fill-opacity="1"/></g></g></g></g><g clip-path="url(#83d07356a8)"><g clip-path="url(#4bbaecee24)"><g transform="matrix(1, 0, 0, 1, 206, 313)"><g clip-path="url(#0e741f1a70)"><g clip-path="url(#419db25403)"><g clip-path="url(#d837a66bc9)"><rect x="-388.091" width="864.432" fill="#ffffff" y="-495.090995" height="864.431978" fill-opacity="1"/></g></g></g></g></g></g><g clip-path="url(#bfb081a37e)"><g clip-path="url(#64c0bd675c)"><g transform="matrix(1, 0, 0, 1, 262, 313)"><g clip-path="url(#53fec4511a)"><g clip-path="url(#5602f26bba)"><g clip-path="url(#5e2881a7e0)"><rect x="-444.091" width="864.432" fill="#ffffff" y="-495.090995" height="864.431978" fill-opacity="1"/></g></g></g></g></g></g><g clip-path="url(#22ce5fe1ac)"><g transform="matrix(1, 0, 0, 1, 306, 313)"><g clip-path="url(#71cdd72b7f)"><g clip-path="url(#8c8f39768c)"><rect x="-488.091" width="864.432" fill="#ffffff" y="-495.090995" height="864.431978" fill-opacity="1"/></g></g></g></g><g clip-path="url(#88f8dcff01)"><g transform="matrix(1, 0, 0, 1, 88, 406)"><g clip-path="url(#eb784ab5d1)"><g clip-path="url(#4c40050a5a)"><path fill="#ffff00" d="M 0.320312 0.242188 L 323.175781 0.242188 L 323.175781 4.839844 L 0.320312 4.839844 Z M 0.320312 0.242188 " fill-opacity="1" fill-rule="nonzero"/></g></g></g></g><g clip-path="url(#4dfd368804)"><g clip-path="url(#3edd134882)"><g transform="matrix(1, 0, 0, 1, 88, 88)"><g clip-path="url(#4345fbe76a)"><g clip-path="url(#8447ccc814)"><g clip-path="url(#448e422dfc)"><path fill="#ffff00" d="M 0.566406 0.660156 L 322.875 0.660156 L 322.875 209.023438 L 0.566406 209.023438 Z M 0.566406 0.660156 " fill-opacity="1" fill-rule="nonzero"/></g></g></g></g></g></g><g clip-path="url(#306a0faa8f)"><g clip-path="url(#a0269e1161)"><g transform="matrix(1, 0, 0, 1, 330, 313)"><g clip-path="url(#b0993301a1)"><g clip-path="url(#c313ddcf19)"><g clip-path="url(#1a17a7f833)"><rect x="-512.091" width="864.432" fill="#ffffff" y="-495.090995" height="864.431978" fill-opacity="1"/></g></g></g></g></g></g><g clip-path="url(#d1e2d9eecf)"><g clip-path="url(#f833044ee1)"><g transform="matrix(1, 0, 0, 1, 373, 313)"><g clip-path="url(#1d333f924e)"><g clip-path="url(#7ca27d34d1)"><g clip-path="url(#b7622fa541)"><rect x="-555.091" width="864.432" fill="#ffffff" y="-495.090995" height="864.431978" fill-opacity="1"/></g></g></g></g></g></g></g></g></g></svg>